Coordinates
version=1
nRows=16
nColumns=38
inDegrees=no

Units are S.I. units (second, meters, Newtons, ...)
If the header above contains a line with 'inDegrees', this indicates whether rotational values are in degrees (yes) or radians (no).

endheader
time	pelvis_tilt	pelvis_list	pelvis_rotation	pelvis_tx	pelvis_ty	pelvis_tz	hip_flexion_r	hip_adduction_r	hip_rotation_r	knee_angle_r	ankle_angle_r	subtalar_angle_r	mtp_angle_r	hip_flexion_l	hip_adduction_l	hip_rotation_l	knee_angle_l	ankle_angle_l	subtalar_angle_l	mtp_angle_l	lumbar_extension	lumbar_bending	lumbar_rotation	arm_flex_r	arm_add_r	arm_rot_r	elbow_flex_r	pro_sup_r	wrist_flex_r	wrist_dev_r	arm_flex_l	arm_add_l	arm_rot_l	elbow_flex_l	pro_sup_l	wrist_flex_l	wrist_dev_l
0.59	0.0578376	-0.0499028	0.0845212	0.185305	1.00821	-0.225669	0.0676004	0.0930521	-0.174646	0.266152	0.152757	0	0	0.377467	-0.173242	-0.0935045	1.20659	-0.0220934	0	0	-0.143473	0.0834453	-0.0343968	-0.0063164	-0.171209	-0.235539	0.759728	0.23514	0	0	-0.0124602	-0.201573	-0.0614218	0.869344	0.171683	0	0
0.6	0.0617164	-0.0435576	0.079415	0.197302	1.00987	-0.224972	0.0388985	0.0909099	-0.164	0.246678	0.15501	0	0	0.3881	-0.164459	-0.101796	1.17661	-0.00804792	0	0	-0.148243	0.0750819	-0.0271157	0.000524918	-0.174702	-0.220805	0.77178	0.228784	0	0	-0.0264752	-0.206631	-0.0698722	0.872384	0.165426	0	0
0.61	0.061812	-0.0368976	0.0752749	0.209038	1.0109	-0.224398	0.0161792	0.0872211	-0.155495	0.230177	0.159003	0	0	0.402599	-0.153902	-0.108466	1.14318	0.00333554	0	0	-0.149448	0.0662164	-0.0212175	0.00866766	-0.175617	-0.216723	0.781784	0.227118	0	0	-0.0395639	-0.210191	-0.0833341	0.872741	0.164113	0	0
0.62	0.0569217	-0.0308048	0.073457	0.22038	1.01115	-0.224113	0.00120275	0.082723	-0.152111	0.217135	0.165468	0	0	0.423077	-0.141911	-0.111874	1.10716	0.012411	0	0	-0.145364	0.058025	-0.0183591	0.0186646	-0.174521	-0.220131	0.78814	0.227587	0	0	-0.0506487	-0.212026	-0.101819	0.868516	0.169092	0	0
0.63	0.0615363	-0.0251718	0.067326	0.232183	1.01199	-0.223619	-0.0268504	0.0800983	-0.139758	0.199526	0.168782	0	0	0.427477	-0.133527	-0.120765	1.0637	0.025599	0	0	-0.151934	0.050918	-0.00965447	0.023773	-0.179034	-0.206175	0.806362	0.239483	0	0	-0.0608547	-0.214265	-0.113072	0.867479	0.166426	0	0
0.64	0.0613486	-0.0197382	0.0631281	0.243634	1.01212	-0.22337	-0.0471392	0.0762767	-0.132097	0.186276	0.174031	0	0	0.437068	-0.123563	-0.127167	1.01703	0.0343069	0	0	-0.153482	0.0439851	-0.00402402	0.0314266	-0.181376	-0.201328	0.820548	0.241283	0	0	-0.0716172	-0.21607	-0.125757	0.865797	0.154346	0	0
0.65	0.0555119	-0.016542	0.0625087	0.254874	1.01137	-0.223439	-0.0595388	0.0740553	-0.130364	0.175954	0.180802	0	0	0.453452	-0.113385	-0.128441	0.968153	0.0393046	0	0	-0.14857	0.0394815	-0.00348994	0.0411522	-0.18217	-0.200868	0.830808	0.241477	0	0	-0.0840382	-0.216634	-0.141936	0.864565	0.159171	0	0
0.66	0.0611338	-0.0135776	0.0553651	0.266657	1.01148	-0.223067	-0.0881076	0.0733577	-0.115542	0.159324	0.183371	0	0	0.450521	-0.107817	-0.137678	0.911107	0.0477827	0	0	-0.156787	0.0354725	0.00600826	0.0461145	-0.187616	-0.192174	0.852197	0.230337	0	0	-0.0948976	-0.2182	-0.15106	0.867763	0.151834	0	0
0.67	0.0617676	-0.0121426	0.0519311	0.278336	1.01085	-0.222991	-0.109572	0.0734288	-0.108221	0.145877	0.188654	0	0	0.453141	-0.101336	-0.142152	0.851202	0.053129	0	0	-0.159138	0.0331214	0.0113225	0.0521763	-0.190866	-0.188331	0.868421	0.232372	0	0	-0.104801	-0.218426	-0.160874	0.864952	0.167524	0	0
0.68	0.0566152	-0.0120448	0.0511537	0.289824	1.00937	-0.223144	-0.123331	0.0743146	-0.107574	0.134685	0.196907	0	0	0.462088	-0.094288	-0.143216	0.788614	0.0555749	0	0	-0.15499	0.0321696	0.0121118	0.0600981	-0.192975	-0.185503	0.88118	0.232395	0	0	-0.116083	-0.217811	-0.17445	0.861538	0.172535	0	0
0.69	0.0617689	-0.0102409	0.0416499	0.301555	1.00869	-0.222761	-0.151395	0.0733992	-0.0908323	0.117641	0.200265	0	0	0.452993	-0.0896862	-0.153876	0.718277	0.0599066	0	0	-0.163211	0.0292519	0.0236312	0.0652492	-0.197726	-0.182719	0.902968	0.217556	0	0	-0.124689	-0.217321	-0.183524	0.86104	0.166116	0	0
0.7	0.055928	-0.0113806	0.0408769	0.313248	1.00664	-0.222989	-0.164435	0.075398	-0.0896837	0.106552	0.208095	0	0	0.459346	-0.0835484	-0.153997	0.650096	0.0636073	0	0	-0.158043	0.0295284	0.024009	0.0726392	-0.200129	-0.180188	0.91649	0.217628	0	0	-0.13598	-0.215988	-0.196888	0.858883	0.171332	0	0
0.71	0.0592173	-0.00979151	0.0367968	0.325523	1.00532	-0.223071	-0.191157	0.0747701	-0.0786637	0.0898087	0.212158	0	0	0.449723	-0.075988	-0.15873	0.574361	0.0714934	0	0	-0.162913	0.0270067	0.0304941	0.0765476	-0.20289	-0.180691	0.934589	0.225315	0	0	-0.14402	-0.215042	-0.204254	0.85567	0.194351	0	0
0.72	0.0582085	-0.00931922	0.0342979	0.337501	1.00338	-0.223398	-0.210397	0.0747245	-0.0721203	0.0776879	0.218838	0	0	0.445	-0.0676074	-0.156909	0.498474	0.0805629	0	0	-0.163474	0.0256982	0.0341729	0.0820783	-0.205151	-0.180679	0.948385	0.236776	0	0	-0.152258	-0.213305	-0.210614	0.851187	0.240004	0	0
0.73	0.0537859	-0.00909189	0.0337011	0.349426	1.00094	-0.223987	-0.223963	0.0746667	-0.0705563	0.069332	0.227957	0	0	0.442805	-0.0576588	-0.148131	0.421312	0.0889396	0	0	-0.160234	0.0246769	0.0339955	0.089184	-0.207192	-0.17874	0.959352	0.236724	0	0	-0.161589	-0.210844	-0.223021	0.848247	0.245958	0	0
0.74	0.0557908	-0.00407045	0.0308783	0.36182	0.99906	-0.224615	-0.245641	0.0688604	-0.0675409	0.0605605	0.236262	0	0	0.427258	-0.0425251	-0.138412	0.337448	0.0947912	0	0	-0.163962	0.0185742	0.037294	0.094628	-0.207851	-0.184948	0.972239	0.225296	0	0	-0.167507	-0.209003	-0.23309	0.842245	0.246934	0	0
